<svg width="110" height="110" viewBox="0 0 110 110" fill="none" xmlns="http://www.w3.org/2000/svg">
<rect width="110" height="110" fill="#CFDAEA"/>
<path d="M37.5041 45.19C30.4165 22.1452 37.8733 18.5999 42.4876 19.7078C51.7901 7.29957 65.1901 14.9066 70.7273 20.2612C74.2711 23.3633 74.0496 37.4339 73.4959 44.0814H74.0496C76.7074 44.0814 76.2645 47.7745 75.7107 49.621C75.2678 53.1659 72.2039 56.2684 70.7273 57.3765C70.7273 62.2513 68.5124 66.4245 67.405 67.9017V72.3334H70.7273V76.2111L89 84.5205C61.5355 107.122 32.8898 93.9378 22 84.5205L40.8264 76.2111V72.3334H45.2562V67.9017C40.8264 65.2427 40.0882 59.777 40.2727 57.3765C36.9504 57.3765 36.3967 54.6067 35.2893 49.621C34.4033 45.6325 36.3967 45.0051 37.5041 45.19Z" fill="white"/>
</svg>
