<svg width="16" height="14" viewBox="0 0 16 14" fill="none" xmlns="http://www.w3.org/2000/svg">
<path d="M16 3.5C16 2.6875 15.3125 2 14.5 2H11.75L11.3438 1C11.125 0.40625 10.5625 0 9.9375 0H6.03125C5.40625 0 4.84375 0.40625 4.625 1L4.25 2H1.5C0.65625 2 0 2.6875 0 3.5V12.5C0 13.3438 0.65625 14 1.5 14H14.5C15.3125 14 16 13.3438 16 12.5V3.5ZM11.75 8C11.75 10.0938 10.0625 11.75 8 11.75C5.90625 11.75 4.25 10.0938 4.25 8C4.25 5.9375 5.90625 4.25 8 4.25C10.0625 4.25 11.75 5.9375 11.75 8ZM10.75 8C10.75 6.5 9.5 5.25 8 5.25C6.46875 5.25 5.25 6.5 5.25 8C5.25 9.53125 6.46875 10.75 8 10.75C9.5 10.75 10.75 9.53125 10.75 8Z" fill="#7B8E99"/>
</svg>
