<svg width="30" height="22" viewBox="0 0 30 22" fill="none" xmlns="http://www.w3.org/2000/svg">
<path d="M25.1719 9.64062C25.3594 9.125 25.5 8.60938 25.5 8C25.5 5.51562 23.4844 3.5 21 3.5C20.0625 3.5 19.1719 3.78125 18.4688 4.29688C17.2031 2.04688 14.7656 0.5 12 0.5C7.82812 0.5 4.5 3.875 4.5 8C4.5 8.14062 4.5 8.28125 4.5 8.42188C1.875 9.3125 0 11.8438 0 14.75C0 18.5 3 21.5 6.75 21.5H24C27.2812 21.5 30 18.8281 30 15.5C30 12.6406 27.9375 10.2031 25.1719 9.64062ZM18.4219 12.5H15.375V17.75C15.375 18.1719 15 18.5 14.625 18.5H12.375C11.9531 18.5 11.625 18.1719 11.625 17.75V12.5H8.53125C7.875 12.5 7.54688 11.7031 8.01562 11.2344L12.9375 6.3125C13.2188 6.03125 13.7344 6.03125 14.0156 6.3125L18.9375 11.2344C19.4062 11.7031 19.0781 12.5 18.4219 12.5Z" fill="#B0C5D8"/>
</svg>
