<svg width="125" height="32" viewBox="0 0 125 32" fill="none" xmlns="http://www.w3.org/2000/svg">
<rect width="24.7124" height="24.7124" rx="4" transform="matrix(0.858402 0.512977 -0.858402 0.512977 21.2132 6.42285)" fill="#0183D9" fill-opacity="0.38"/>
<rect width="20.0418" height="20.0418" rx="4" transform="matrix(0.858402 0.512977 -0.858402 0.512977 21.2132 2.77637)" fill="#0183D9" fill-opacity="0.2"/>
<rect width="15.8241" height="15.8241" rx="3" transform="matrix(0.858402 0.512977 -0.858402 0.512977 21.2001 0)" fill="#0183D9" fill-opacity="0.15"/>
<path d="M60.2389 22.0913H56.0592C55.1738 22.0913 54.4759 22.0158 53.9655 21.8647C53.4446 21.7189 52.942 21.4481 52.4577 21.0522C51.8639 20.5522 51.4212 19.9246 51.1295 19.1694C50.8327 18.409 50.6842 17.5054 50.6842 16.4585C50.6842 14.4116 51.1269 12.8934 52.0123 11.9038C52.8873 10.9194 54.2571 10.4272 56.1217 10.4272H60.2389V12.7944H56.1686C55.3926 12.7944 54.8118 12.9819 54.4264 13.3569C54.0306 13.7371 53.8014 14.2866 53.7389 15.0054L60.2389 15.021V17.3726H53.7233C53.7233 17.7632 53.7728 18.1095 53.8717 18.4116C53.9551 18.7085 54.0879 18.9481 54.2702 19.1304C54.6504 19.5262 55.2832 19.7241 56.1686 19.7241H60.2389V22.0913ZM72.2233 18.5288C72.2233 19.7424 71.8873 20.6408 71.2155 21.2241C70.5436 21.8022 69.515 22.0913 68.1295 22.0913H61.6998V19.6929H67.7623C68.0592 19.6929 68.3196 19.6694 68.5436 19.6226C68.7571 19.5861 68.9238 19.5184 69.0436 19.4194C69.2728 19.2528 69.3873 18.9819 69.3873 18.6069C69.3873 18.2215 69.2806 17.9325 69.067 17.7397C68.9525 17.6564 68.8092 17.5991 68.6373 17.5679C68.4551 17.5366 68.2155 17.521 67.9186 17.521H65.1452C63.8483 17.521 62.8639 17.2424 62.192 16.6851C61.5618 16.1226 61.2467 15.2528 61.2467 14.0757C61.2467 12.8309 61.5827 11.909 62.2545 11.3101C62.916 10.7215 63.9472 10.4272 65.3483 10.4272H71.6998V12.8413L65.6998 12.8491C65.1009 12.8491 64.6842 12.9507 64.4498 13.1538C64.2155 13.3309 64.0983 13.6486 64.0983 14.1069C64.0983 14.4299 64.1946 14.6825 64.3873 14.8647C64.6217 15.0418 64.9472 15.1304 65.3639 15.1304H68.4655C69.8196 15.1304 70.7832 15.396 71.3561 15.9272C71.9342 16.4533 72.2233 17.3205 72.2233 18.5288ZM82.442 22.0913H78.2623C77.3769 22.0913 76.679 22.0158 76.1686 21.8647C75.6478 21.7189 75.1452 21.4481 74.6608 21.0522C74.067 20.5522 73.6243 19.9246 73.3327 19.1694C73.0358 18.409 72.8873 17.5054 72.8873 16.4585C72.8873 14.4116 73.3301 12.8934 74.2155 11.9038C75.0905 10.9194 76.4603 10.4272 78.3248 10.4272H82.442V12.7632H78.3717C77.903 12.7632 77.515 12.8257 77.2077 12.9507C76.9004 13.0965 76.6452 13.3127 76.442 13.5991C76.0462 14.172 75.8483 15.159 75.8483 16.5601C75.8483 17.7528 76.0358 18.5783 76.4108 19.0366C76.7702 19.495 77.4238 19.7241 78.3717 19.7241H82.442V22.0913ZM94.4967 22.0991H91.3952L88.9498 17.6851H86.4967V22.0991H83.7623V10.4272H89.7311C91.1478 10.4272 92.1712 10.7215 92.8014 11.3101C93.4733 11.8882 93.8092 12.7892 93.8092 14.0132C93.8092 14.9194 93.6061 15.6616 93.1998 16.2397C92.8405 16.7606 92.3301 17.1174 91.6686 17.3101L94.4967 22.0991ZM91.0592 14.0444C91.0592 13.6069 90.9368 13.297 90.692 13.1147C90.416 12.9377 89.9082 12.8491 89.1686 12.8491H86.4967V15.2788H89.1686C89.8873 15.2788 90.39 15.1825 90.6764 14.9897C90.9316 14.797 91.0592 14.4819 91.0592 14.0444ZM106.223 16.2554C106.223 18.2918 105.747 19.8127 104.794 20.8179C103.846 21.8283 102.4 22.3335 100.458 22.3335C98.4733 22.3335 97.0176 21.8309 96.0905 20.8257C95.1634 19.8153 94.6998 18.2554 94.6998 16.146C94.6998 14.1512 95.1738 12.6616 96.1217 11.6772C97.0592 10.7085 98.5045 10.2241 100.458 10.2241C102.411 10.2241 103.861 10.7189 104.809 11.7085C105.752 12.7137 106.223 14.2293 106.223 16.2554ZM103.278 16.2554C103.278 14.9741 103.049 14.0288 102.59 13.4194C102.132 12.8257 101.421 12.5288 100.458 12.5288C99.5202 12.5288 98.817 12.8205 98.3483 13.4038C98.1139 13.7163 97.9368 14.0965 97.817 14.5444C97.7025 14.9924 97.6452 15.5314 97.6452 16.1616C97.6452 17.495 97.8743 18.4637 98.3327 19.0679C98.7806 19.6772 99.4889 19.9819 100.458 19.9819C101.395 19.9819 102.101 19.6772 102.575 19.0679C103.044 18.4741 103.278 17.5366 103.278 16.2554ZM123.965 10.4272L120.38 22.0991H117.231L115.005 14.2554L113.067 22.0991H109.919L106.075 10.4272H109.02L111.419 18.5288L113.45 10.4272H116.52L118.872 18.5444L121.114 10.4272H123.965Z" fill="#87AEE1"/>
</svg>
