<svg width="171" height="134" viewBox="0 0 171 134" fill="none" xmlns="http://www.w3.org/2000/svg">
<circle cx="66.5" cy="67" r="66.5" fill="#FFD4D4" fill-opacity="0.1"/>
<circle cx="79.5" cy="67" r="66.5" fill="#FFD4D4" fill-opacity="0.15"/>
<ellipse cx="92" cy="67" rx="66" ry="66.5" fill="#FFD4D4" fill-opacity="0.2"/>
<circle cx="104.356" cy="66.8559" r="66.3559" fill="#FFD5D5"/>
<path d="M95.5992 35.0969C88.2045 35.5604 84.2489 36.5941 82.1286 38.6249C80.9882 39.7294 79.4201 42.1178 77.9767 44.9859C76.4624 47.9615 75.5533 50.4737 74.4129 54.8577L74.2166 55.6242L73.3434 54.3055C72.3993 52.862 71.3118 51.8642 70.1006 51.3119C69.0139 50.8134 66.3584 50.8134 65.5748 51.294C64.6657 51.8462 64.3806 52.862 64.4523 55.1787C64.5232 57.2811 64.7195 57.7983 65.6285 58.3857C66.0383 58.6528 66.6443 58.7066 69.7267 58.7596C71.7224 58.7954 73.3442 58.8483 73.3442 58.8842C73.3442 58.92 72.9524 59.3656 72.4531 59.8641C69.4766 62.9123 67.731 66.5119 67.2854 70.5033C67.0003 73.2118 67.5526 81.2125 68.2832 84.7405C68.6571 86.6115 69.5304 88.9282 70.1543 89.8006C70.4573 90.2283 71.0275 90.6738 71.5261 90.9231L72.3634 91.3149L72.4522 94.0771C72.5589 97.302 72.7373 97.8193 73.9315 98.3716C74.5734 98.6567 75.1078 98.7104 77.7095 98.7104C80.2934 98.7104 80.8456 98.6567 81.4875 98.3716C82.6817 97.8193 82.8593 97.3737 82.9489 94.8078L83.0026 92.5987L84.9983 92.7054C86.085 92.7771 88.7047 92.9196 90.8071 93.0443C95.7605 93.3114 112.938 93.3114 117.892 93.0443C119.994 92.9196 122.632 92.7771 123.736 92.7054L125.732 92.5987V94.6302C125.732 97.1074 125.963 97.7126 127.158 98.3007C127.888 98.6746 128.191 98.7104 130.989 98.7104C133.572 98.7104 134.125 98.6567 134.767 98.3716C135.961 97.8193 136.138 97.302 136.246 94.0771L136.335 91.3149L137.172 90.9231C138.206 90.4425 138.74 89.7297 139.453 87.9654C140.486 85.3815 141.021 81.9962 141.413 75.4747C141.644 71.7683 141.466 69.5054 140.754 67.2776C139.934 64.6579 138.33 62.0032 136.246 59.8649C135.746 59.3664 135.355 58.9208 135.355 58.885C135.355 58.8492 136.976 58.7962 138.972 58.7604C142.91 58.7066 143.178 58.6357 143.855 57.602C144.336 56.8893 144.425 53.5397 143.997 52.4523C143.534 51.241 142.946 50.9559 140.968 50.9559C138.438 50.9738 136.976 51.8291 135.373 54.2704L134.481 55.6251L134.285 54.8585C132.806 49.2453 131.506 46.0025 129.26 42.332C127.461 39.3743 126.605 38.3943 124.93 37.4315C123.183 36.4157 120.279 35.7567 115.485 35.2753C113.008 35.0261 98.825 34.9014 95.5992 35.0969ZM114.594 40.2646C119.798 40.781 123.45 41.6722 124.324 42.5992C124.983 43.3119 127.496 48.4438 128.387 50.885C129.188 53.1121 130.258 56.943 130.115 57.1573C130.079 57.229 128.85 57.1931 127.389 57.0856C115.575 56.1415 103.387 55.9452 91.0743 56.4975C86.8336 56.6759 79.8127 57.1394 78.9754 57.2811C78.476 57.3699 78.476 57.3528 78.6015 56.7109C78.8507 55.3212 79.9911 51.6679 80.7577 49.708C81.7555 47.2137 83.7871 43.2394 84.4102 42.5804C85.2297 41.6893 89.0606 40.7631 94.1037 40.2459C98.7354 39.7832 109.89 39.7832 114.594 40.2646ZM82.342 65.817C84.4094 66.744 85.4781 68.3471 85.6028 70.6638C85.6744 71.9467 85.6207 72.2318 85.193 73.2118C84.6228 74.4589 83.5362 75.5643 82.2882 76.1336C80.9874 76.7397 78.9208 76.6859 77.5841 76.0269C74.1457 74.3342 73.3434 69.7547 76.0168 67.0104C77.6916 65.2827 80.1329 64.8192 82.342 65.817ZM131.023 65.835C134.409 67.3672 135.353 71.875 132.841 74.7081C132.449 75.1716 131.683 75.7418 131.112 76.0269C129.776 76.6859 127.709 76.7397 126.408 76.1336C125.304 75.6172 124.127 74.5118 123.593 73.461C122.934 72.1601 122.862 70.0219 123.45 68.7389C124.021 67.5097 124.68 66.7432 125.695 66.1551C127.424 65.1401 129.223 65.0326 131.023 65.835ZM116.928 76.7576C118.247 77.8092 117.944 78.9847 115.806 81.1946C114.095 82.9411 114.755 82.8515 104.349 82.8515C93.9424 82.8515 94.6014 82.9403 92.8908 81.1946C91.0555 79.3056 90.6637 78.3974 91.2339 77.3457C91.7333 76.4367 91.4482 76.4546 104.437 76.4546C115.663 76.4367 116.59 76.4725 116.928 76.7576Z" fill="#CD4242"/>
</svg>
