<svg width="125" height="32" viewBox="0 0 125 32" fill="none" xmlns="http://www.w3.org/2000/svg">
<rect width="24.7124" height="24.7124" rx="4" transform="matrix(0.858402 0.512977 -0.858402 0.512977 21.2132 6.42273)" fill="#0183D9" fill-opacity="0.38"/>
<rect width="20.0418" height="20.0418" rx="4" transform="matrix(0.858402 0.512977 -0.858402 0.512977 21.2132 2.77661)" fill="#0183D9" fill-opacity="0.2"/>
<rect width="15.8241" height="15.8241" rx="3" transform="matrix(0.858402 0.512977 -0.858402 0.512977 21.2001 0)" fill="#0183D9" fill-opacity="0.15"/>
<path d="M60.2389 22.0914H56.0592C55.1738 22.0914 54.4759 22.0159 53.9655 21.8649C53.4446 21.719 52.942 21.4482 52.4577 21.0524C51.8639 20.5524 51.4212 19.9248 51.1295 19.1696C50.8327 18.4091 50.6842 17.5055 50.6842 16.4586C50.6842 14.4117 51.1269 12.8935 52.0123 11.9039C52.8873 10.9196 54.2571 10.4274 56.1217 10.4274H60.2389V12.7946H56.1686C55.3926 12.7946 54.8118 12.9821 54.4264 13.3571C54.0306 13.7373 53.8014 14.2867 53.7389 15.0055L60.2389 15.0211V17.3727H53.7233C53.7233 17.7633 53.7728 18.1097 53.8717 18.4117C53.9551 18.7086 54.0879 18.9482 54.2702 19.1305C54.6504 19.5263 55.2832 19.7242 56.1686 19.7242H60.2389V22.0914ZM72.2233 18.5289C72.2233 19.7425 71.8873 20.6409 71.2155 21.2242C70.5436 21.8024 69.515 22.0914 68.1295 22.0914H61.6998V19.693H67.7623C68.0592 19.693 68.3196 19.6696 68.5436 19.6227C68.7571 19.5862 68.9238 19.5185 69.0436 19.4196C69.2728 19.2529 69.3873 18.9821 69.3873 18.6071C69.3873 18.2216 69.2806 17.9326 69.067 17.7399C68.9525 17.6565 68.8092 17.5992 68.6373 17.568C68.4551 17.5367 68.2155 17.5211 67.9186 17.5211H65.1452C63.8483 17.5211 62.8639 17.2425 62.192 16.6852C61.5618 16.1227 61.2467 15.2529 61.2467 14.0758C61.2467 12.831 61.5827 11.9091 62.2545 11.3102C62.916 10.7216 63.9472 10.4274 65.3483 10.4274H71.6998V12.8414L65.6998 12.8492C65.1009 12.8492 64.6842 12.9508 64.4498 13.1539C64.2155 13.331 64.0983 13.6487 64.0983 14.1071C64.0983 14.43 64.1946 14.6826 64.3873 14.8649C64.6217 15.042 64.9472 15.1305 65.3639 15.1305H68.4655C69.8196 15.1305 70.7832 15.3961 71.3561 15.9274C71.9342 16.4534 72.2233 17.3206 72.2233 18.5289ZM82.442 22.0914H78.2623C77.3769 22.0914 76.679 22.0159 76.1686 21.8649C75.6478 21.719 75.1452 21.4482 74.6608 21.0524C74.067 20.5524 73.6243 19.9248 73.3327 19.1696C73.0358 18.4091 72.8873 17.5055 72.8873 16.4586C72.8873 14.4117 73.3301 12.8935 74.2155 11.9039C75.0905 10.9196 76.4603 10.4274 78.3248 10.4274H82.442V12.7633H78.3717C77.903 12.7633 77.515 12.8258 77.2077 12.9508C76.9004 13.0966 76.6452 13.3128 76.442 13.5992C76.0462 14.1722 75.8483 15.1591 75.8483 16.5602C75.8483 17.7529 76.0358 18.5784 76.4108 19.0367C76.7702 19.4951 77.4238 19.7242 78.3717 19.7242H82.442V22.0914ZM94.4967 22.0992H91.3952L88.9498 17.6852H86.4967V22.0992H83.7623V10.4274H89.7311C91.1478 10.4274 92.1712 10.7216 92.8014 11.3102C93.4733 11.8883 93.8092 12.7893 93.8092 14.0133C93.8092 14.9196 93.6061 15.6617 93.1998 16.2399C92.8405 16.7607 92.3301 17.1175 91.6686 17.3102L94.4967 22.0992ZM91.0592 14.0446C91.0592 13.6071 90.9368 13.2972 90.692 13.1149C90.416 12.9378 89.9082 12.8492 89.1686 12.8492H86.4967V15.2789H89.1686C89.8873 15.2789 90.39 15.1826 90.6764 14.9899C90.9316 14.7972 91.0592 14.4821 91.0592 14.0446ZM106.223 16.2555C106.223 18.292 105.747 19.8128 104.794 20.818C103.846 21.8284 102.4 22.3336 100.458 22.3336C98.4733 22.3336 97.0176 21.831 96.0905 20.8258C95.1634 19.8154 94.6998 18.2555 94.6998 16.1461C94.6998 14.1513 95.1738 12.6617 96.1217 11.6774C97.0592 10.7086 98.5045 10.2242 100.458 10.2242C102.411 10.2242 103.861 10.719 104.809 11.7086C105.752 12.7138 106.223 14.2295 106.223 16.2555ZM103.278 16.2555C103.278 14.9742 103.049 14.0289 102.59 13.4196C102.132 12.8258 101.421 12.5289 100.458 12.5289C99.5202 12.5289 98.817 12.8206 98.3483 13.4039C98.1139 13.7164 97.9368 14.0966 97.817 14.5446C97.7025 14.9925 97.6452 15.5315 97.6452 16.1617C97.6452 17.4951 97.8743 18.4638 98.3327 19.068C98.7806 19.6774 99.4889 19.9821 100.458 19.9821C101.395 19.9821 102.101 19.6774 102.575 19.068C103.044 18.4742 103.278 17.5367 103.278 16.2555ZM123.965 10.4274L120.38 22.0992H117.231L115.005 14.2555L113.067 22.0992H109.919L106.075 10.4274H109.02L111.419 18.5289L113.45 10.4274H116.52L118.872 18.5446L121.114 10.4274H123.965Z" fill="#2191DB"/>
</svg>
