<svg width="24" height="24" viewBox="0 0 24 24" fill="none" xmlns="http://www.w3.org/2000/svg">
<path d="M15.625 11.75H15.0625V10.0625C15.0625 8.11719 13.4453 6.5 11.5 6.5C9.53125 6.5 7.9375 8.11719 7.9375 10.0625V11.75H7.375C6.74219 11.75 6.25 12.2656 6.25 12.875V17.375C6.25 18.0078 6.74219 18.5 7.375 18.5H15.625C16.2344 18.5 16.75 18.0078 16.75 17.375V12.875C16.75 12.2656 16.2344 11.75 15.625 11.75ZM13.1875 11.75H9.8125V10.0625C9.8125 9.14844 10.5625 8.375 11.5 8.375C12.4141 8.375 13.1875 9.14844 13.1875 10.0625V11.75Z" fill="#3D4147"/>
</svg>
