<svg class="icon-reset-op" width="24" height="24" viewBox="0 0 24 24" fill="none" xmlns="http://www.w3.org/2000/svg">
<path d="M13.9402 10.9994C14.5246 10.9994 14.9981 11.5152 14.9981 12.1534V14.8451C14.9981 15.4817 14.5246 15.9992 13.9402 15.9992H10.0614C9.47699 15.9992 9.00357 15.4834 9.00357 14.8451V12.1534C9.00357 11.5168 9.47699 10.9994 10.0614 10.9994H11.0001H12.9999H13.9402ZM11.991 12.0033C11.4392 12.0033 10.9903 12.4309 10.9903 12.9598C10.9903 13.3124 11.2646 13.5834 11.5617 13.7482V14.9904H12.4187V13.7482C12.7175 13.5817 12.9901 13.3124 12.9901 12.9598C12.9917 12.4309 12.5444 12.0033 11.991 12.0033ZM11.9992 9.00143C11.0589 9.00143 11.0017 9.79147 10.9985 10.002V10.9994H9.99286V10.0983C9.99286 10.0983 9.99286 7.99918 11.9959 7.99918C13.999 7.99918 13.999 10.0983 13.999 10.0983V10.9994H12.9999V10.002C12.9966 9.79637 12.9395 9.00143 11.9992 9.00143ZM11.9992 20C7.58168 20 4 16.4187 4 12.0016C4 7.58457 7.58168 4.00326 11.9992 4.00326C13.4227 4.00326 14.7581 4.37707 15.9172 5.02999L16.3592 4.4183C16.4816 4.24898 16.7454 4.29554 16.8024 4.49654L17.6738 7.56949C17.7233 7.74393 17.5764 7.91137 17.397 7.88505L14.6934 7.48838C14.5077 7.46114 14.4171 7.2467 14.527 7.09461L15.1101 6.28758C14.1208 5.75218 13.2048 5.48571 12 5.48571C8.13427 5.48571 5.48571 8.13467 5.48571 12C5.48571 15.8653 8.13427 18.5143 12 18.5143C15.8657 18.5143 18.5143 15.8637 18.5143 12C18.5143 11.4308 18.358 10.8223 18.1598 10.2488C17.9798 9.72813 18.3382 9.16945 18.8889 9.15602C19.214 9.14809 19.5142 9.34006 19.6198 9.64765C19.8765 10.396 20 11.1206 20 12.0033C19.9984 16.4187 16.4167 20 11.9992 20Z" fill="#7B8E99"/>
</svg>
