<svg width="80" height="80" viewBox="0 0 80 80" fill="none" xmlns="http://www.w3.org/2000/svg">
<circle cx="40" cy="40" r="40" fill="#2191DB"/>
<path d="M40.625 25C35.625 25 32.375 27.0625 29.8125 30.75C29.375 31.375 29.5 32.3125 30.1875 32.75L32.875 34.8125C33.5 35.3125 34.4375 35.1875 34.9375 34.5625C36.5 32.625 37.6875 31.5 40.125 31.5C42.0625 31.5 44.4375 32.6875 44.4375 34.5625C44.4375 36 43.25 36.6875 41.375 37.75C39.125 39 36.1875 40.5625 36.1875 44.4375V45C36.1875 45.875 36.875 46.5 37.6875 46.5H42.25C43.0625 46.5 43.75 45.875 43.75 45V44.6875C43.75 42 51.5625 41.875 51.5625 34.625C51.5625 29.1875 45.875 25 40.625 25ZM40 48.375C37.5625 48.375 35.625 50.3125 35.625 52.6875C35.625 55.0625 37.5625 57 40 57C42.375 57 44.3125 55.0625 44.3125 52.6875C44.3125 50.3125 42.375 48.375 40 48.375Z" fill="white"/>
</svg>
