<svg width="22" height="30" viewBox="0 0 22 30" fill="none" xmlns="http://www.w3.org/2000/svg">
<circle cx="11" cy="15" r="11" fill="white"/>
<path d="M11.1356 12.08C10.629 12.08 10.209 11.9267 9.87563 11.62C9.55563 11.3 9.39563 10.9067 9.39563 10.44C9.39563 9.97333 9.55563 9.58667 9.87563 9.28C10.209 8.96 10.629 8.8 11.1356 8.8C11.629 8.8 12.0356 8.96 12.3556 9.28C12.6756 9.58667 12.8356 9.97333 12.8356 10.44C12.8356 10.9067 12.6756 11.3 12.3556 11.62C12.0356 11.9267 11.629 12.08 11.1356 12.08ZM16.1756 13.64V16.08H5.97563V13.64H16.1756ZM11.1356 20.9C10.629 20.9 10.209 20.7467 9.87563 20.44C9.55563 20.12 9.39563 19.7267 9.39563 19.26C9.39563 18.7933 9.55563 18.4067 9.87563 18.1C10.209 17.78 10.629 17.62 11.1356 17.62C11.629 17.62 12.0356 17.78 12.3556 18.1C12.6756 18.4067 12.8356 18.7933 12.8356 19.26C12.8356 19.7267 12.6756 20.12 12.3556 20.44C12.0356 20.7467 11.629 20.9 11.1356 20.9Z" fill="#87AEE1"/>
</svg>
