<svg width="99" height="23" viewBox="0 0 99 23" fill="none" xmlns="http://www.w3.org/2000/svg">
<rect width="17.4743" height="17.4743" rx="4" transform="matrix(0.858402 0.512977 -0.858402 0.512977 15 4.5415)" fill="#D9010E" fill-opacity="0.8"/>
<rect width="14.1717" height="14.1717" rx="4" transform="matrix(0.887523 0.460763 -0.826213 0.563358 14.5656 1.9762)" fill="#0476DF" fill-opacity="0.83"/>
<rect width="11.1893" height="11.1893" rx="3" transform="matrix(0.858402 0.512977 -0.858402 0.512977 14.9907 0)" fill="#3AB600" fill-opacity="0.85"/>
<path d="M42.5859 15.9125H38.9287C38.154 15.9125 37.5433 15.8464 37.0967 15.7142C36.641 15.5866 36.2012 15.3497 35.7773 15.0033C35.2578 14.5658 34.8704 14.0166 34.6152 13.3558C34.3555 12.6905 34.2256 11.8998 34.2256 10.9838C34.2256 9.19275 34.613 7.8643 35.3877 6.99841C36.1533 6.13708 37.3519 5.70642 38.9834 5.70642H42.5859V7.77771H39.0244C38.3454 7.77771 37.8372 7.94177 37.5 8.2699C37.1536 8.60258 36.9531 9.08337 36.8984 9.71228L42.5859 9.72595V11.7836H36.8848C36.8848 12.1254 36.9281 12.4284 37.0146 12.6927C37.0876 12.9525 37.2038 13.1622 37.3633 13.3217C37.696 13.668 38.2497 13.8412 39.0244 13.8412H42.5859V15.9125ZM53.0723 12.7953C53.0723 13.8571 52.7783 14.6433 52.1904 15.1537C51.6025 15.6595 50.7025 15.9125 49.4902 15.9125H43.8643V13.8138H49.1689C49.4287 13.8138 49.6566 13.7933 49.8525 13.7523C50.0394 13.7204 50.1852 13.6612 50.29 13.5746C50.4906 13.4288 50.5908 13.1918 50.5908 12.8636C50.5908 12.5264 50.4974 12.2735 50.3105 12.1049C50.2103 12.0319 50.085 11.9818 49.9346 11.9545C49.7751 11.9271 49.5654 11.9135 49.3057 11.9135H46.8789C45.7441 11.9135 44.8828 11.6696 44.2949 11.182C43.7435 10.6898 43.4678 9.92875 43.4678 8.8988C43.4678 7.80961 43.7617 7.00297 44.3496 6.47888C44.9284 5.96391 45.8307 5.70642 47.0566 5.70642H52.6143V7.81873L47.3643 7.82556C46.8402 7.82556 46.4756 7.91443 46.2705 8.09216C46.0654 8.24711 45.9629 8.52511 45.9629 8.92615C45.9629 9.2087 46.0472 9.42973 46.2158 9.58923C46.4209 9.74418 46.7057 9.82166 47.0703 9.82166H49.7842C50.9691 9.82166 51.8122 10.0541 52.3135 10.5189C52.8193 10.9792 53.0723 11.738 53.0723 12.7953ZM62.0137 15.9125H58.3564C57.5817 15.9125 56.971 15.8464 56.5244 15.7142C56.0687 15.5866 55.6289 15.3497 55.2051 15.0033C54.6855 14.5658 54.2982 14.0166 54.043 13.3558C53.7832 12.6905 53.6533 11.8998 53.6533 10.9838C53.6533 9.19275 54.0407 7.8643 54.8154 6.99841C55.5811 6.13708 56.7796 5.70642 58.4111 5.70642H62.0137V7.75037H58.4521C58.042 7.75037 57.7025 7.80505 57.4336 7.91443C57.1647 8.04203 56.9414 8.23116 56.7637 8.48181C56.4173 8.98311 56.2441 9.84672 56.2441 11.0726C56.2441 12.1163 56.4082 12.8386 56.7363 13.2396C57.0508 13.6407 57.6227 13.8412 58.4521 13.8412H62.0137V15.9125ZM72.5615 15.9193H69.8477L67.708 12.057H65.5615V15.9193H63.1689V5.70642H68.3916C69.6312 5.70642 70.5267 5.96391 71.0781 6.47888C71.666 6.98474 71.96 7.77315 71.96 8.84412C71.96 9.63708 71.7822 10.2865 71.4268 10.7924C71.1123 11.2481 70.6657 11.5603 70.0869 11.7289L72.5615 15.9193ZM69.5537 8.87146C69.5537 8.48865 69.4466 8.21749 69.2324 8.05798C68.9909 7.90304 68.5465 7.82556 67.8994 7.82556H65.5615V9.95154H67.8994C68.5283 9.95154 68.9681 9.86723 69.2188 9.69861C69.4421 9.52999 69.5537 9.25427 69.5537 8.87146ZM82.8223 10.806C82.8223 12.5879 82.4053 13.9187 81.5713 14.7982C80.7419 15.6823 79.4772 16.1244 77.7773 16.1244C76.041 16.1244 74.7673 15.6846 73.9561 14.8051C73.1449 13.9209 72.7393 12.556 72.7393 10.7103C72.7393 8.96488 73.154 7.6615 73.9834 6.80017C74.8037 5.95251 76.0684 5.52869 77.7773 5.52869C79.4863 5.52869 80.7555 5.96163 81.585 6.82751C82.4098 7.70707 82.8223 9.03324 82.8223 10.806ZM80.2451 10.806C80.2451 9.68494 80.0446 8.85779 79.6436 8.32458C79.2425 7.80505 78.6204 7.54529 77.7773 7.54529C76.957 7.54529 76.3418 7.8005 75.9316 8.31091C75.7266 8.58435 75.5716 8.91703 75.4668 9.30896C75.3665 9.70089 75.3164 10.1726 75.3164 10.724C75.3164 11.8907 75.5169 12.7383 75.918 13.267C76.3099 13.8002 76.9297 14.0668 77.7773 14.0668C78.5977 14.0668 79.2152 13.8002 79.6299 13.267C80.04 12.7474 80.2451 11.9271 80.2451 10.806ZM98.3467 5.70642L95.209 15.9193H92.4541L90.5059 9.05603L88.8105 15.9193H86.0557L82.6924 5.70642H85.2695L87.3682 12.7953L89.1455 5.70642H91.832L93.8896 12.809L95.8516 5.70642H98.3467Z" fill="#2191DB"/>
</svg>
