<svg width="1360" height="283" viewBox="0 0 1360 283" fill="none" xmlns="http://www.w3.org/2000/svg">
<mask id="mask0_2131_4271" style="mask-type:alpha" maskUnits="userSpaceOnUse" x="0" y="0" width="1360" height="283">
<rect width="1360" height="283" fill="url(#paint0_linear_2131_4271)"/>
</mask>
<g mask="url(#mask0_2131_4271)">
<rect y="1" width="1360" height="283" fill="#E9F4FF"/>
<mask id="mask1_2131_4271" style="mask-type:alpha" maskUnits="userSpaceOnUse" x="0" y="0" width="1360" height="283">
<rect width="1360" height="283" fill="#E9F4FF"/>
</mask>
<g mask="url(#mask1_2131_4271)">
<g opacity="0.7">
<path d="M17 34L52.507 54.5V95.5L17 116L-18.507 95.5V54.5L17 34Z" fill="#E7EDFF"/>
<path d="M95 34L130.507 54.5V95.5L95 116L59.493 95.5V54.5L95 34Z" fill="#E7EDFF"/>
<path d="M173 34L208.507 54.5V95.5L173 116L137.493 95.5V54.5L173 34Z" fill="#E7EDFF"/>
<path d="M251 34L286.507 54.5V95.5L251 116L215.493 95.5V54.5L251 34Z" fill="#E7EDFF"/>
<path d="M329 34L364.507 54.5V95.5L329 116L293.493 95.5V54.5L329 34Z" fill="#E7EDFF"/>
<path d="M407 34L442.507 54.5V95.5L407 116L371.493 95.5V54.5L407 34Z" fill="#E7EDFF"/>
<path d="M485 34L520.507 54.5V95.5L485 116L449.493 95.5V54.5L485 34Z" fill="#E7EDFF"/>
<path d="M563 34L598.507 54.5V95.5L563 116L527.493 95.5V54.5L563 34Z" fill="#E7EDFF"/>
<path d="M641 34L676.507 54.5V95.5L641 116L605.493 95.5V54.5L641 34Z" fill="#E7EDFF"/>
<path d="M719 34L754.507 54.5V95.5L719 116L683.493 95.5V54.5L719 34Z" fill="#E7EDFF"/>
<path d="M797 34L832.507 54.5V95.5L797 116L761.493 95.5V54.5L797 34Z" fill="#E7EDFF"/>
<path d="M875 34L910.507 54.5V95.5L875 116L839.493 95.5V54.5L875 34Z" fill="#E7EDFF"/>
<path d="M953 34L988.507 54.5V95.5L953 116L917.493 95.5V54.5L953 34Z" fill="#E7EDFF"/>
<path d="M1031 34L1066.51 54.5V95.5L1031 116L995.493 95.5V54.5L1031 34Z" fill="#E7EDFF"/>
<path d="M1109 34L1144.51 54.5V95.5L1109 116L1073.49 95.5V54.5L1109 34Z" fill="#E7EDFF"/>
<path d="M1187 34L1222.51 54.5V95.5L1187 116L1151.49 95.5V54.5L1187 34Z" fill="#E7EDFF"/>
<path d="M1265 34L1300.51 54.5V95.5L1265 116L1229.49 95.5V54.5L1265 34Z" fill="#E7EDFF"/>
<path d="M1343 34L1378.51 54.5V95.5L1343 116L1307.49 95.5V54.5L1343 34Z" fill="#E7EDFF"/>
</g>
<g opacity="0.7">
<path d="M17 168L52.507 188.5V229.5L17 250L-18.507 229.5V188.5L17 168Z" fill="#E7EDFF"/>
<path d="M95 168L130.507 188.5V229.5L95 250L59.493 229.5V188.5L95 168Z" fill="#E7EDFF"/>
<path d="M173 168L208.507 188.5V229.5L173 250L137.493 229.5V188.5L173 168Z" fill="#E7EDFF"/>
<path d="M251 168L286.507 188.5V229.5L251 250L215.493 229.5V188.5L251 168Z" fill="#E7EDFF"/>
<path d="M329 168L364.507 188.5V229.5L329 250L293.493 229.5V188.5L329 168Z" fill="#E7EDFF"/>
<path d="M407 168L442.507 188.5V229.5L407 250L371.493 229.5V188.5L407 168Z" fill="#E7EDFF"/>
<path d="M485 168L520.507 188.5V229.5L485 250L449.493 229.5V188.5L485 168Z" fill="#E7EDFF"/>
<path d="M563 168L598.507 188.5V229.5L563 250L527.493 229.5V188.5L563 168Z" fill="#E7EDFF"/>
<path d="M641 168L676.507 188.5V229.5L641 250L605.493 229.5V188.5L641 168Z" fill="#E7EDFF"/>
<path d="M719 168L754.507 188.5V229.5L719 250L683.493 229.5V188.5L719 168Z" fill="#E7EDFF"/>
<path d="M797 168L832.507 188.5V229.5L797 250L761.493 229.5V188.5L797 168Z" fill="#E7EDFF"/>
<path d="M875 168L910.507 188.5V229.5L875 250L839.493 229.5V188.5L875 168Z" fill="#E7EDFF"/>
<path d="M953 168L988.507 188.5V229.5L953 250L917.493 229.5V188.5L953 168Z" fill="#E7EDFF"/>
<path d="M1031 168L1066.51 188.5V229.5L1031 250L995.493 229.5V188.5L1031 168Z" fill="#E7EDFF"/>
<path d="M1109 168L1144.51 188.5V229.5L1109 250L1073.49 229.5V188.5L1109 168Z" fill="#E7EDFF"/>
<path d="M1187 168L1222.51 188.5V229.5L1187 250L1151.49 229.5V188.5L1187 168Z" fill="#E7EDFF"/>
<path d="M1265 168L1300.51 188.5V229.5L1265 250L1229.49 229.5V188.5L1265 168Z" fill="#E7EDFF"/>
<path d="M1343 168L1378.51 188.5V229.5L1343 250L1307.49 229.5V188.5L1343 168Z" fill="#E7EDFF"/>
</g>
<g opacity="0.7">
<path d="M-22 101L13.507 121.5V162.5L-22 183L-57.507 162.5V121.5L-22 101Z" fill="#E7EDFF"/>
<path d="M56 101L91.507 121.5V162.5L56 183L20.493 162.5V121.5L56 101Z" fill="#E7EDFF"/>
<path d="M134 101L169.507 121.5V162.5L134 183L98.493 162.5V121.5L134 101Z" fill="#E7EDFF"/>
<path d="M212 101L247.507 121.5V162.5L212 183L176.493 162.5V121.5L212 101Z" fill="#E7EDFF"/>
<path d="M290 101L325.507 121.5V162.5L290 183L254.493 162.5V121.5L290 101Z" fill="#E7EDFF"/>
<path d="M368 101L403.507 121.5V162.5L368 183L332.493 162.5V121.5L368 101Z" fill="#E7EDFF"/>
<path d="M446 101L481.507 121.5V162.5L446 183L410.493 162.5V121.5L446 101Z" fill="#E7EDFF"/>
<path d="M524 101L559.507 121.5V162.5L524 183L488.493 162.5V121.5L524 101Z" fill="#E7EDFF"/>
<path d="M602 101L637.507 121.5V162.5L602 183L566.493 162.5V121.5L602 101Z" fill="#E7EDFF"/>
<path d="M680 101L715.507 121.5V162.5L680 183L644.493 162.5V121.5L680 101Z" fill="#E7EDFF"/>
<path d="M758 101L793.507 121.5V162.5L758 183L722.493 162.5V121.5L758 101Z" fill="#E7EDFF"/>
<path d="M836 101L871.507 121.5V162.5L836 183L800.493 162.5V121.5L836 101Z" fill="#E7EDFF"/>
<path d="M914 101L949.507 121.5V162.5L914 183L878.493 162.5V121.5L914 101Z" fill="#E7EDFF"/>
<path d="M992 101L1027.51 121.5V162.5L992 183L956.493 162.5V121.5L992 101Z" fill="#E7EDFF"/>
<path d="M1070 101L1105.51 121.5V162.5L1070 183L1034.49 162.5V121.5L1070 101Z" fill="#E7EDFF"/>
<path d="M1148 101L1183.51 121.5V162.5L1148 183L1112.49 162.5V121.5L1148 101Z" fill="#E7EDFF"/>
<path d="M1226 101L1261.51 121.5V162.5L1226 183L1190.49 162.5V121.5L1226 101Z" fill="#E7EDFF"/>
<path d="M1304 101L1339.51 121.5V162.5L1304 183L1268.49 162.5V121.5L1304 101Z" fill="#E7EDFF"/>
<path d="M1382 101L1417.51 121.5V162.5L1382 183L1346.49 162.5V121.5L1382 101Z" fill="#E7EDFF"/>
</g>
<g opacity="0.7">
<path d="M-22 -33L13.507 -12.5V28.5L-22 49L-57.507 28.5V-12.5L-22 -33Z" fill="#E7EDFF"/>
<path d="M56 -33L91.507 -12.5V28.5L56 49L20.493 28.5V-12.5L56 -33Z" fill="#E7EDFF"/>
<path d="M134 -33L169.507 -12.5V28.5L134 49L98.493 28.5V-12.5L134 -33Z" fill="#E7EDFF"/>
<path d="M212 -33L247.507 -12.5V28.5L212 49L176.493 28.5V-12.5L212 -33Z" fill="#E7EDFF"/>
<path d="M290 -33L325.507 -12.5V28.5L290 49L254.493 28.5V-12.5L290 -33Z" fill="#E7EDFF"/>
<path d="M368 -33L403.507 -12.5V28.5L368 49L332.493 28.5V-12.5L368 -33Z" fill="#E7EDFF"/>
<path d="M446 -33L481.507 -12.5V28.5L446 49L410.493 28.5V-12.5L446 -33Z" fill="#E7EDFF"/>
<path d="M524 -33L559.507 -12.5V28.5L524 49L488.493 28.5V-12.5L524 -33Z" fill="#E7EDFF"/>
<path d="M602 -33L637.507 -12.5V28.5L602 49L566.493 28.5V-12.5L602 -33Z" fill="#E7EDFF"/>
<path d="M680 -33L715.507 -12.5V28.5L680 49L644.493 28.5V-12.5L680 -33Z" fill="#E7EDFF"/>
<path d="M758 -33L793.507 -12.5V28.5L758 49L722.493 28.5V-12.5L758 -33Z" fill="#E7EDFF"/>
<path d="M836 -33L871.507 -12.5V28.5L836 49L800.493 28.5V-12.5L836 -33Z" fill="#E7EDFF"/>
<path d="M914 -33L949.507 -12.5V28.5L914 49L878.493 28.5V-12.5L914 -33Z" fill="#E7EDFF"/>
<path d="M992 -33L1027.51 -12.5V28.5L992 49L956.493 28.5V-12.5L992 -33Z" fill="#E7EDFF"/>
<path d="M1070 -33L1105.51 -12.5V28.5L1070 49L1034.49 28.5V-12.5L1070 -33Z" fill="#E7EDFF"/>
<path d="M1148 -33L1183.51 -12.5V28.5L1148 49L1112.49 28.5V-12.5L1148 -33Z" fill="#E7EDFF"/>
<path d="M1226 -33L1261.51 -12.5V28.5L1226 49L1190.49 28.5V-12.5L1226 -33Z" fill="#E7EDFF"/>
<path d="M1304 -33L1339.51 -12.5V28.5L1304 49L1268.49 28.5V-12.5L1304 -33Z" fill="#E7EDFF"/>
<path d="M1382 -33L1417.51 -12.5V28.5L1382 49L1346.49 28.5V-12.5L1382 -33Z" fill="#E7EDFF"/>
</g>
<g opacity="0.7">
<path d="M-22 235L13.507 255.5V296.5L-22 317L-57.507 296.5V255.5L-22 235Z" fill="#E7EDFF"/>
<path d="M56 235L91.507 255.5V296.5L56 317L20.493 296.5V255.5L56 235Z" fill="#E7EDFF"/>
<path d="M134 235L169.507 255.5V296.5L134 317L98.493 296.5V255.5L134 235Z" fill="#E7EDFF"/>
<path d="M212 235L247.507 255.5V296.5L212 317L176.493 296.5V255.5L212 235Z" fill="#E7EDFF"/>
<path d="M290 235L325.507 255.5V296.5L290 317L254.493 296.5V255.5L290 235Z" fill="#E7EDFF"/>
<path d="M368 235L403.507 255.5V296.5L368 317L332.493 296.5V255.5L368 235Z" fill="#E7EDFF"/>
<path d="M446 235L481.507 255.5V296.5L446 317L410.493 296.5V255.5L446 235Z" fill="#E7EDFF"/>
<path d="M524 235L559.507 255.5V296.5L524 317L488.493 296.5V255.5L524 235Z" fill="#E7EDFF"/>
<path d="M602 235L637.507 255.5V296.5L602 317L566.493 296.5V255.5L602 235Z" fill="#E7EDFF"/>
<path d="M680 235L715.507 255.5V296.5L680 317L644.493 296.5V255.5L680 235Z" fill="#E7EDFF"/>
<path d="M758 235L793.507 255.5V296.5L758 317L722.493 296.5V255.5L758 235Z" fill="#E7EDFF"/>
<path d="M836 235L871.507 255.5V296.5L836 317L800.493 296.5V255.5L836 235Z" fill="#E7EDFF"/>
<path d="M914 235L949.507 255.5V296.5L914 317L878.493 296.5V255.5L914 235Z" fill="#E7EDFF"/>
<path d="M992 235L1027.51 255.5V296.5L992 317L956.493 296.5V255.5L992 235Z" fill="#E7EDFF"/>
<path d="M1070 235L1105.51 255.5V296.5L1070 317L1034.49 296.5V255.5L1070 235Z" fill="#E7EDFF"/>
<path d="M1148 235L1183.51 255.5V296.5L1148 317L1112.49 296.5V255.5L1148 235Z" fill="#E7EDFF"/>
<path d="M1226 235L1261.51 255.5V296.5L1226 317L1190.49 296.5V255.5L1226 235Z" fill="#E7EDFF"/>
<path d="M1304 235L1339.51 255.5V296.5L1304 317L1268.49 296.5V255.5L1304 235Z" fill="#E7EDFF"/>
<path d="M1382 235L1417.51 255.5V296.5L1382 317L1346.49 296.5V255.5L1382 235Z" fill="#E7EDFF"/>
</g>
</g>
</g>
<defs>
<linearGradient id="paint0_linear_2131_4271" x1="1360" y1="142" x2="2.55011e-06" y2="142" gradientUnits="userSpaceOnUse">
<stop stop-color="#D9D9D9" stop-opacity="0"/>
<stop offset="0.0729167" stop-color="#D9D9D9"/>
<stop offset="0.921875" stop-color="#D9D9D9"/>
<stop offset="1" stop-color="#D9D9D9" stop-opacity="0"/>
</linearGradient>
</defs>
</svg>
