<svg width="22" height="22" viewBox="0 0 22 22" fill="none" xmlns="http://www.w3.org/2000/svg">
<circle cx="11" cy="11" r="11" fill="white"/>
<path d="M11.1085 9.064C10.7032 9.064 10.3672 8.94133 10.1005 8.696C9.8445 8.44 9.7165 8.12533 9.7165 7.752C9.7165 7.37867 9.8445 7.06933 10.1005 6.824C10.3672 6.568 10.7032 6.44 11.1085 6.44C11.5032 6.44 11.8285 6.568 12.0845 6.824C12.3405 7.06933 12.4685 7.37867 12.4685 7.752C12.4685 8.12533 12.3405 8.44 12.0845 8.696C11.8285 8.94133 11.5032 9.064 11.1085 9.064ZM15.1405 10.312V12.264H6.9805V10.312H15.1405ZM11.1085 16.12C10.7032 16.12 10.3672 15.9973 10.1005 15.752C9.8445 15.496 9.7165 15.1813 9.7165 14.808C9.7165 14.4347 9.8445 14.1253 10.1005 13.88C10.3672 13.624 10.7032 13.496 11.1085 13.496C11.5032 13.496 11.8285 13.624 12.0845 13.88C12.3405 14.1253 12.4685 14.4347 12.4685 14.808C12.4685 15.1813 12.3405 15.496 12.0845 15.752C11.8285 15.9973 11.5032 16.12 11.1085 16.12Z" fill="#2191DB"/>
</svg>
