<svg width="64" height="64" viewBox="0 0 64 64" fill="none" xmlns="http://www.w3.org/2000/svg">
<path d="M59.1875 40.0625C59.4688 38.75 59.4688 37.3438 59.1875 36.0312L61.625 34.625C61.9062 34.5312 62 34.1562 61.9062 33.875C61.25 31.8125 60.2188 30.0312 58.8125 28.4375C58.625 28.25 58.25 28.1562 57.9688 28.3438L55.5312 29.75C54.5 28.9062 53.375 28.1562 52.0625 27.7812V24.9688C52.0625 24.5938 51.875 24.3125 51.5938 24.3125C49.4375 23.8438 47.375 23.8438 45.3125 24.3125C45.0312 24.3125 44.8438 24.5938 44.8438 24.9688V27.7812C43.5312 28.1562 42.4062 28.9062 41.375 29.75L38.9375 28.3438C38.6562 28.1562 38.2812 28.25 38.0938 28.4375C36.6875 30.0312 35.5625 31.8125 35 33.875C34.9062 34.1562 35 34.5312 35.2812 34.625L37.7188 36.0312C37.4375 37.3438 37.4375 38.75 37.7188 40.0625L35.2812 41.4688C35 41.5625 34.9062 41.9375 35 42.2188C35.5625 44.2812 36.6875 46.0625 38.0938 47.6562C38.2812 47.8438 38.6562 47.9375 38.9375 47.75L41.375 46.3438C42.4062 47.1875 43.5312 47.9375 44.8438 48.3125V51.125C44.8438 51.5 45.0312 51.7812 45.3125 51.7812C47.4688 52.25 49.5312 52.25 51.5938 51.7812C51.875 51.7812 52.0625 51.5 52.0625 51.125V48.3125C53.375 47.9375 54.5 47.1875 55.5312 46.3438L57.9688 47.75C58.25 47.9375 58.625 47.8438 58.8125 47.6562C60.2188 46.0625 61.25 44.2812 61.9062 42.2188C62 41.9375 61.9062 41.5625 61.625 41.4688L59.1875 40.0625ZM48.5 42.5938C45.9688 42.5938 43.9062 40.5312 43.9062 38C43.9062 35.5625 45.9688 33.5 48.5 33.5C50.9375 33.5 53 35.5625 53 38C53 40.5312 50.9375 42.5938 48.5 42.5938ZM11 29C14.2812 29 17 26.375 17 23C17 19.7188 14.2812 17 11 17C7.625 17 5 19.7188 5 23C5 26.375 7.625 29 11 29ZM32 32C32.0938 32 32.2812 32 32.4688 32C33.2188 29.9375 34.4375 28.0625 35.8438 26.4688C36.5938 25.7188 37.5312 25.25 38.5625 25.25C39.2188 25.25 39.875 25.4375 40.4375 25.7188L41.1875 26.1875C41.2812 26.0938 41.2812 26.0938 41.375 26.0938C42.0312 24.6875 42.4062 23.1875 42.4062 21.5938C42.4062 15.7812 37.7188 11.0938 31.9062 11.0938C26.1875 11.0938 21.5 15.7812 21.5 21.5C21.5 27.3125 26.1875 32 32 32ZM41.8438 50.2812C41.5625 50.1875 41.375 50 41.1875 49.9062C40.4375 50.375 39.7812 50.8438 38.5625 50.8438C37.625 50.8438 36.5938 50.375 35.9375 49.625C34.1562 47.75 32.8438 45.5 32.0938 43.1562C31.1562 39.875 34.4375 38.4688 34.5312 38.375C34.5312 38.1875 34.5312 37.9062 34.5312 37.7188L33.7812 37.25C33.4062 37.0625 33.125 36.7812 32.8438 36.5C32.5625 36.5 32.2812 36.5 32 36.5C29.6562 36.5 27.5 35.9375 25.5312 35H24.7812C18.7812 35 14 39.875 14 45.875V48.5C14 51.0312 15.9688 53 18.5 53H42.4062C42.0312 52.4375 41.8438 51.875 41.8438 51.125V50.2812ZM18.2188 33.7812C17.0938 32.75 15.5938 32 14 32H8C4.625 32 2 34.7188 2 38V41C2 42.6875 3.3125 44 5 44H11.0938C11.75 39.5938 14.375 35.8438 18.2188 33.7812Z" fill="#B0C5D8"/>
</svg>
