<svg width="64" height="64" viewBox="0 0 64 64" fill="none" xmlns="http://www.w3.org/2000/svg">
<path d="M11 29C14.2812 29 17 26.375 17 23C17 19.7188 14.2812 17 11 17C7.625 17 5 19.7188 5 23C5 26.375 7.625 29 11 29ZM53 29C56.2812 29 59 26.375 59 23C59 19.7188 56.2812 17 53 17C49.625 17 47 19.7188 47 23C47 26.375 49.625 29 53 29ZM56 32H50C48.3125 32 46.8125 32.75 45.6875 33.7812C49.5312 35.8438 52.1562 39.5938 52.8125 44H59C60.5938 44 62 42.6875 62 41V38C62 34.7188 59.2812 32 56 32ZM32 32C37.7188 32 42.5 27.3125 42.5 21.5C42.5 15.7812 37.7188 11 32 11C26.1875 11 21.5 15.7812 21.5 21.5C21.5 27.3125 26.1875 32 32 32ZM39.125 35H38.375C36.4062 35.9375 34.25 36.5 32 36.5C29.6562 36.5 27.5 35.9375 25.5312 35H24.7812C18.7812 35 14 39.875 14 45.875V48.5C14 51.0312 15.9688 53 18.5 53H45.5C47.9375 53 50 51.0312 50 48.5V45.875C50 39.875 45.125 35 39.125 35ZM18.2188 33.7812C17.0938 32.75 15.5938 32 14 32H8C4.625 32 2 34.7188 2 38V41C2 42.6875 3.3125 44 5 44H11.0938C11.75 39.5938 14.375 35.8438 18.2188 33.7812Z" fill="#B0C5D8"/>
</svg>
