<svg width="16" height="18" viewBox="0 0 16 18" fill="none" xmlns="http://www.w3.org/2000/svg">
<path d="M15.75 9C15.75 4.75 12.25 1.25 8 1.25C3.71875 1.25 0.25 4.75 0.25 9C0.25 13.2812 3.71875 16.75 8 16.75C12.25 16.75 15.75 13.2812 15.75 9ZM7.09375 13.125C6.90625 13.3125 6.5625 13.3125 6.375 13.125L3.125 9.875C2.9375 9.6875 2.9375 9.34375 3.125 9.15625L3.84375 8.46875C4.03125 8.25 4.34375 8.25 4.53125 8.46875L6.75 10.6562L11.4375 5.96875C11.625 5.75 11.9375 5.75 12.125 5.96875L12.8438 6.65625C13.0312 6.84375 13.0312 7.1875 12.8438 7.375L7.09375 13.125Z" fill="#45BF7D"/>
</svg>
