<svg width="16" height="18" viewBox="0 0 16 18" fill="none" xmlns="http://www.w3.org/2000/svg">
<path d="M8 1.25C3.71875 1.25 0.25 4.75 0.25 9C0.25 13.2812 3.71875 16.75 8 16.75C12.25 16.75 15.75 13.2812 15.75 9C15.75 4.75 12.25 1.25 8 1.25ZM8 4.6875C8.71875 4.6875 9.3125 5.28125 9.3125 6C9.3125 6.75 8.71875 7.3125 8 7.3125C7.25 7.3125 6.6875 6.75 6.6875 6C6.6875 5.28125 7.25 4.6875 8 4.6875ZM9.75 12.625C9.75 12.8438 9.5625 13 9.375 13H6.625C6.40625 13 6.25 12.8438 6.25 12.625V11.875C6.25 11.6875 6.40625 11.5 6.625 11.5H7V9.5H6.625C6.40625 9.5 6.25 9.34375 6.25 9.125V8.375C6.25 8.1875 6.40625 8 6.625 8H8.625C8.8125 8 9 8.1875 9 8.375V11.5H9.375C9.5625 11.5 9.75 11.6875 9.75 11.875V12.625Z" fill="#EB5757"/>
</svg>
